<svg xmlns="http://www.w3.org/2000/svg" width="24" height="44" viewBox="0 0 24 44">
    <g fill="none" fill-rule="evenodd">
        <g>
            <g>
                <g>
                    <g>
                        <path d="M0 0H24V44H0z" transform="translate(-851 -1753) translate(785 1753) translate(56) translate(10)"/>
                        <path fill="#333" d="M15.146 13.646c.196-.195.512-.195.708 0 .173.174.192.443.057.638l-.057.07L8.207 22l7.647 7.646c.173.174.192.443.057.638l-.057.07c-.174.173-.443.192-.638.057l-.07-.057-8-8c-.173-.174-.192-.443-.057-.638l.057-.07 8-8z" transform="translate(-851 -1753) translate(785 1753) translate(56) translate(10) matrix(-1 0 0 1 23 0)"/>
                    </g>
                </g>
            </g>
        </g>
    </g>
</svg>
