<?xml version="1.0" encoding="UTF-8"?>
<svg width="12px" height="14px" viewBox="0 0 12 14" version="1.1" xmlns="http://www.w3.org/2000/svg" xmlns:xlink="http://www.w3.org/1999/xlink">
    <title>list_secret_icon</title>
    <g id="list_secret_icon" stroke="none" stroke-width="1" fill="none" fill-rule="evenodd">
        <g fill="#B5B5B5">
            <path d="M11.0431933,12.574516 C11.0431933,12.7158689 10.9276078,12.8321906 10.7847825,12.8321906 L1.21401504,12.8321906 C1.07266217,12.8321906 0.956340536,12.7158689 0.956340536,12.574516 L0.956340536,5.41999925 C0.956340536,5.27791016 1.07266217,5.16232474 1.21401504,5.16232474 L10.7847825,5.16232474 C10.9276078,5.16232474 11.0431933,5.27791016 11.0431933,5.41999925 L11.0431933,12.574516 Z M3.68548169,3.23712805 C3.68548169,1.97967644 4.7088176,0.957076748 5.96626921,0.957076748 C7.22445703,0.957076748 8.24705672,1.97967644 8.24705672,3.23712805 L8.24705672,4.20524799 L3.68548169,4.20524799 L3.68548169,3.23712805 Z M10.7847825,4.20524799 L9.20413347,4.20524799 L9.20413347,3.23712805 C9.20413347,1.45254802 7.75158545,0 5.96626921,0 C4.18095297,0 2.72914116,1.45254802 2.72914116,3.23712805 L2.72914116,4.20524799 L1.21401504,4.20524799 C0.544797534,4.20524799 2.27373675e-13,4.75004552 2.27373675e-13,5.41999925 L2.27373675e-13,12.574516 C2.27373675e-13,13.2437336 0.544797534,13.7885311 1.21401504,13.7885311 L10.7847825,13.7885311 C11.4554725,13.7885311 12.00027,13.2437336 12.00027,12.574516 L12.00027,5.41999925 C12.00027,4.75004552 11.4554725,4.20524799 10.7847825,4.20524799 L10.7847825,4.20524799 Z" id="Fill-1"></path>
            <path d="M5,8.20042427 C5,8.54323292 5.18413237,8.83173526 5.44802715,9.01247348 L5.44802715,10.3420269 L6.55112431,10.3420269 L6.55112431,9.01247348 C6.81501909,8.83173526 7,8.54323292 7,8.20042427 C7,7.64802715 6.55197285,7.2 5.99957573,7.2 C5.44717862,7.2 5,7.64802715 5,8.20042427 Z" id="Fill-4"></path>
        </g>
    </g>
</svg>